<svg xmlns="http://www.w3.org/2000/svg" viewBox="0 0 1600 640" role="img" aria-labelledby="title desc">
  <title id="title">Abstract PC hardware board</title>
  <desc id="desc">A dark technical illustration of a motherboard, processor socket, memory slots, and graphics card.</desc>
  <defs>
    <pattern id="grid" width="40" height="40" patternUnits="userSpaceOnUse">
      <path d="M40 0H0V40" fill="none" stroke="#30382b" stroke-width="1"/>
      <circle cx="1" cy="1" r="1.5" fill="#748548"/>
    </pattern>
    <pattern id="fins" width="18" height="18" patternUnits="userSpaceOnUse">
      <path d="M0 2h18M0 8h18M0 14h18" stroke="#394035" stroke-width="3"/>
    </pattern>
  </defs>
  <rect width="1600" height="640" fill="#0d100d"/>
  <rect width="1600" height="640" fill="url(#grid)" opacity=".55"/>
  <g fill="none" stroke="#687743" stroke-width="2" opacity=".62">
    <path d="M0 100h240l45 45h180l42-42h230"/>
    <path d="M0 515h190l58-58h250l50 50h330"/>
    <path d="M1030 0v95l-46 46v105l38 38v104"/>
    <path d="M1450 0v180l-55 55v138l42 42v225"/>
    <path d="M650 0v72l-34 34v121l46 46v139l-53 53v175"/>
  </g>
  <g fill="#9cad61" opacity=".72">
    <circle cx="240" cy="100" r="5"/><circle cx="465" cy="145" r="5"/><circle cx="190" cy="515" r="5"/>
    <circle cx="498" cy="457" r="5"/><circle cx="1030" cy="95" r="5"/><circle cx="1450" cy="180" r="5"/>
  </g>
  <g transform="translate(755 70)">
    <rect width="680" height="500" fill="#151a15" stroke="#4d5940" stroke-width="3"/>
    <rect x="42" y="38" width="230" height="230" fill="#111411" stroke="#829351" stroke-width="3"/>
    <rect x="68" y="64" width="178" height="178" fill="#20261e" stroke="#59683c" stroke-width="2"/>
    <rect x="91" y="87" width="132" height="132" fill="url(#fins)" stroke="#313a2d"/>
    <path d="M294 38h48v250h-48zM357 38h48v250h-48zM420 38h48v250h-48zM483 38h48v250h-48z" fill="#20261e" stroke="#59683c" stroke-width="2"/>
    <path d="M306 55v212M369 55v212M432 55v212M495 55v212" stroke="#a0b467" stroke-width="2"/>
    <rect x="553" y="38" width="82" height="250" fill="url(#fins)" stroke="#48533b" stroke-width="2"/>
    <rect x="42" y="307" width="593" height="145" fill="#111411" stroke="#4d5940" stroke-width="3"/>
    <rect x="72" y="329" width="355" height="101" fill="#20261e" stroke="#697846" stroke-width="2"/>
    <circle cx="478" cy="379" r="51" fill="#171c16" stroke="#91a45a" stroke-width="3"/>
    <circle cx="478" cy="379" r="34" fill="none" stroke="#53613b" stroke-width="9" stroke-dasharray="7 8"/>
    <circle cx="568" cy="379" r="51" fill="#171c16" stroke="#91a45a" stroke-width="3"/>
    <circle cx="568" cy="379" r="34" fill="none" stroke="#53613b" stroke-width="9" stroke-dasharray="7 8"/>
  </g>
  <g transform="translate(100 150) rotate(-4 300 160)">
    <rect width="535" height="300" fill="#151915" stroke="#414b37" stroke-width="3"/>
    <rect x="30" y="28" width="250" height="118" fill="url(#fins)" stroke="#364032" stroke-width="2"/>
    <rect x="305" y="28" width="195" height="118" fill="#20251e" stroke="#53603e" stroke-width="2"/>
    <path d="M325 48h155v78H325z" fill="none" stroke="#77894f" stroke-width="2"/>
    <path d="M30 178h470M30 210h470M30 242h330" stroke="#59683f" stroke-width="8"/>
    <circle cx="405" cy="242" r="31" fill="none" stroke="#8da357" stroke-width="8" stroke-dasharray="5 6"/>
  </g>
  <g fill="#d1ff00" opacity=".76">
    <rect x="695" y="87" width="6" height="54"/><rect x="695" y="156" width="6" height="18"/>
    <rect x="1515" y="450" width="6" height="54"/><rect x="1515" y="519" width="6" height="18"/>
  </g>
</svg>
